<?xml version="1.0" encoding="UTF-8"?>
<svg id="Lager_1" xmlns="http://www.w3.org/2000/svg" version="1.1" viewBox="0 0 465 451">
  <!-- Generator: Adobe Illustrator 30.2.1, SVG Export Plug-In . SVG Version: 2.1.1 Build 1)  -->
  <path d="M11,451H0V3c1.3-.5,4.5-2,6-2h61s-1.8,18.9-1.8,18.9l-46,.5-.5,146.6.2,153,.2,109.9,42.8-.4c1.2,0,4.3,1.6,4.3,2.8l.5,12.5c.1,3.5-2.4,5-5.6,5.1-17.1.7-33.8-.9-50,1.2Z" fill="#fff"/>
  <g>
    <path d="M402,0c-.5-.1,1.1,1,1.9,1h60.1c0,.1.1,54,.1,54,0,.9,1.1,2.5,1,2v375l-1.2,18h-65.2c-1.4-6.6-1.4-12.9-.5-20.4l47.7-.3V49.2s-.9-28.6-.9-28.6l-42-.5c-2.1,0-4.8-1.9-4.8-3.9V0c-.1,0,3.9,0,3.9,0Z" fill="#fff"/>
    <path d="M232.5,429.7c-4.5-.5-10.1-2.9-10.1-7.7l-.7-39.2-13.3-.2-.2,35.6c0,3.6-2.4,10.4-7.1,9.7s-16.9-5.2-16.9-9.7l-.3-35.6-8.1-2-1.7-4.1c-.4-.9-3.5.4-4.4,0-5.4-2.5-9.2-10.2-9.3-16.5l-.7-34.9c0-4.2-16.1-23.9-16.1-36.8l-.3-144.2c0-38,24.8-69.4,61-80l1.2-11.7c1-10.3,8.1-18.8,18.4-21.5s16-1.9,23.1,1.4c11.6,5.4,17,18.1,15.8,31,38.5,14.8,61.5,42.1,61.4,84.9l-.3,138.8c0,11.8-10,26.5-16.1,36.1l-1,38c-.3,12.2-10.7,20.5-23,21.2v35.8c-.1,3.8-2,8-4.6,9.6-3.4,2.2-8.5,3.1-11.4.7-5.8-4.7-8-3.1-8-9.3v-36.5c0,0-13.8,0-13.8,0v35.5c0,7.4-5.3,12.6-13.5,11.6ZM203.7,158h60.9c0,0,.6-14.9.6-14.9,0-1.5,3.8-2.4,4.9-1.7s2.6,2.5,2.7,3.6l1.2,12.6,9.4.3c2,0,4.5,1.8,4.9,3.6s-1.5,5-3.1,5.1l-11.3.6v109.9c-5.5,7.3-11.3,13.1-18.2,19.7l-.6,12.6h32.5c7-9.2,13.3-19.4,13.3-31.5v-91.5s-.4-43.3-.4-43.3c-.2-18.6-9.8-35-24.4-45.8s-15.9-9.3-24.7-12.4c-12.9-4.7-10.9-15.6-12.5-27.5s-4.4-5.8-7.4-3.9c-8.3,5.3,5.4,26-20.2,33.8-26.4,8-44.4,31.1-44.3,58.9l.4,138.8c0,9.5,8.8,16.6,12.4,24.4l33.4-.2c.2-3.6.4-8.8-.5-11.6l-17.7-18.5-.8-14.6-13-.6.7-8.3,12.4-.7v-87.7c0,0-10.4-.5-10.4-.5-1.4,0-3.5-2-3.8-3.2s.7-4.9,2.2-5l12.4-.8.5-11.8c0-2.3,1.4-4.4,3.5-4.8s4.1,1.4,4.2,3l1,14ZM220.8,295.8c2.5,2.9.3,9.3,1,13.2h24.2c0,0,.4-14.6.4-14.6l18-18.6.2-61.2v-47.6c0,0-61.6-.3-61.6-.3v88.5s49,0,49,0c1.3,2.4,1.1,6.1,0,8.6l-47.9.5c-1,3.1-2.6,8.6-.7,10.8l17.3,20.6ZM284.5,332.3h-101.2v26.7h101.2v-26.7Z" fill="#fff"/>
    <path d="M253.2,215.2c-13.1.9-25.1,1-37.7,0-2.1-1.4-2.4-6.7-.4-8.7,12-.5,24.4-.7,36.8-.2,2.5.5,2.9,5.7,1.4,8.7Z" fill="#fff"/>
  </g>
</svg>