<?xml version="1.0" encoding="UTF-8"?>
<svg id="Lager_1" xmlns="http://www.w3.org/2000/svg" version="1.1" viewBox="0 0 465 451">
  <!-- Generator: Adobe Illustrator 30.2.1, SVG Export Plug-In . SVG Version: 2.1.1 Build 1)  -->
  <path d="M236.3,416.9c-5.1-.2-12.7-5-12.7-10.5l-.2-143.2-.2-20.4-13.5-.4c-7.1-.2-14.5-4.6-15.4-12.4s-.8-14.7-.2-21.9,7.8-12,14.7-12.4l14.6-.7v-123.6c0-2.9,3.4-6.8,5.1-8.7,4.8-5.2,12.1-4.8,16.5.4s4.6,6.9,4.6,11.2v121.1s15.5.6,15.5.6c15.9.6,15.1,21.5,13.5,32.7s-6.6,13.3-14,13.6l-14.9.7v160c-.1,7.4-5.3,14.1-13.3,13.9Z" fill="#fff"/>
  <g>
    <path d="M0,450V3C1.5,1.8,3.7,1,5.9,1h61.2c0,0-1.2,15-1.2,15-.1,1.3-2.5,4.1-3.8,4.1l-43.3.3-.5,81.5.3,213.1v115c.1,0,47-.7,47-.7l.5,20c-3.9.4-7.2.7-11.1.7H0Z" fill="#fff"/>
    <path d="M123.3,412.6c-3.2,4.8-9.4,6.6-14.3,5.1s-8.5-5.5-9-10.7c-.9-10.2-.2-20.4-.2-31v-44.5c-7.9-.5-14.8-.3-22.2-2.5s-6.8-6.7-7-10c-.4-8.6-.6-16.4.2-24.7s8.1-10.6,14.1-10.6,9.9-.2,15.2-.5v-71.3c-.1,0-.4-67.6-.4-67.6v-71.7c0-7.9,7.3-15.2,15.1-14s11.4,6.1,11.5,11.4l1.2,106.3v88.6c0,0-.6,18.3-.6,18.3l15.5.7c4.7.2,11.3,4.3,12,9.3,1.3,8.9,1.2,17.7.2,26.6s-7.4,10.2-13,10.4l-14.6.6.3,70.1c0,3.9-1.7,8.3-3.9,11.6Z" fill="#fff"/>
  </g>
  <g>
    <path d="M369.4,416.4c-7.2.2-13.6-6.9-13.6-14.4l-.4-84,.2-124.6-17.4-1c-3.5-.2-9.1-5.1-9.7-8.5-1.2-7.9-1-15-.7-22.9.2-5.4,3.4-11.8,9.2-12.9s12.3-1.2,18.8-1.4v-71.7c0-9.1,8.8-16.5,17.3-13.8s8.6,6.2,8.6,9.9l.4,75.7c6.8.1,13.3-.3,19.5.9s10.3,8.9,10.5,15.2,1.6,29.2-10.3,29.7l-19.7.9v209.5c0,7-5.3,13.2-12.6,13.5Z" fill="#fff"/>
    <path d="M403,0c-.5-.1,1.2,1,1.5,1h57.3c1.1,0,2.2,3,2.2,4.3v318.5s1,1.3,1,1.3v42c-1.5,26.4-.9,53.6-1,80.7-1.2,1.1-3.5,2.3-4.9,2.3h-58c-2.3,0-4.1-3-4-4.7l.8-15.7h47.5c0-.1.2-126.6.2-126.6v-118.5s0-118.1,0-118.1c0-15.7.2-30.2-1-45.8-17.8-1.5-29.9.4-46.3-.7L398,0h5Z" fill="#fff"/>
  </g>
</svg>