<?xml version="1.0" encoding="UTF-8"?>
<svg id="Lager_1" xmlns="http://www.w3.org/2000/svg" version="1.1" viewBox="0 0 250 250">
  <!-- Generator: Adobe Illustrator 30.2.1, SVG Export Plug-In . SVG Version: 2.1.1 Build 1)  -->
  <path d="M145.7,54.59c-13.74-4.25-23.49-3.8-36.84-.15-20.05,5.48-35.25,18.11-45.83,35.73-8.24,13.72-11.09,30.39-9.17,46.45.3,2.53,1.67,6.37,2.39,8.92,3.09,10.98,8.21,20.61,15.91,29.05-.24,2.79-3.78,6.47-6.72,6.47-20.29-19-23.62-49.46-18.96-75.3,2.9-16.09,11.59-28.95,22.76-40.12,15.92-15.92,36.17-23.14,58.71-22.62,29.85.69,45.92,9.59,65.06,31.92,12.45,14.52,16.38,32.82,16.32,51.55-.06,21.05-5.86,40.5-21.58,55.52-2.26-1.46-4.62-3.82-6.8-6.69,15.25-16.52,22.79-39.89,18.64-61.46-5.5-28.6-26.11-50.71-53.89-59.3Z" fill="#6f6f6f" stroke="#6f6f6f" stroke-miterlimit="10" stroke-width="8"/>
</svg>