<?xml version="1.0" encoding="UTF-8"?>
<svg id="Lager_1" data-name="Lager 1" xmlns="http://www.w3.org/2000/svg" viewBox="0 0 1343.89 625.23">
  <defs>
    <style>
      .cls-1 {
        fill: #fff;
      }
    </style>
  </defs>
  <path class="cls-1" d="M706.59,0c1.96,2.25,5.64,2.41,9.01,2.64l12.84.88c6.72.46,13.59,1.5,20.12,2.59l15.63,2.6,13.22,2.28c3.39.58,7.65,1.97,11.16,3.04,21.65,6.57,23.19,4.64,45.72,13.39l18.67,7.25,64.03-.23c2.32,0,5,1.22,7.31,2.12,9.85,3.86,12.94,6.09,14.33,17.44l-84.73-.2c-10.38-5.63-8.37-3.1-15.59-6.27-3.86-1.7-8.32-3.45-12.57-4.67l-40.07-11.44c-4.25-1.21-8.5-2.01-12.79-2.9l-10.07-2.07-17.98-2.33-10.02-1.5-11.9-1.89c-17.57-2.79-20.69-.21-39.48-2.12-20.39-2.08-26.64,1.19-40.77.84-8.72-.22-17.08.49-25.69,1.77l-18.6,2.77-16.18,2.32-14.5,2.92c-8.14,1.64-15.87,3.86-23.7,6.05l-25.98,7.26-10.96,4.02c-6.01,2.2-12.36,4.81-18.67,7.32l-82.96.05c-.84-16.08,8.96-14.87,19.27-19.46l63.82.29,13.08-4.77c14.53-5.3,28.51-9.81,43.48-13.67,10.5-2.71,20.42-5.57,31.12-7.35l17.42-2.9c7.8-1.3,15.82-2.13,23.52-2.72l16.53-1.27c.95-.07,2.72-1.42,2.92-2.06h70Z"/>
  <g>
    <path class="cls-1" d="M1270.63,596.38c-7.71.25-18.69,1.23-23.41-.94-5.59-.04,4.42,18.44-8.28,26.96-4.53,3.04-11.74,2.84-17.28,2.83l-44.29-.15c-4.35-.01-11.93-4.11-13.53-7.89-3.98-9.42,3.36-22.29-4.74-22.29H181.06s-1.13,19.87-1.13,19.87c-.4,7.1-9.53,10.38-16.26,10.38l-44.15-.03c-5.9,0-14.07-.13-18.05-4.86-6.41-7.61-.09-25.23-5.88-25.25l-61.82-.24-7.02-2.19c-13.58-4.89-26.67-21.39-26.67-34.66l-.08-237.9L.1,107.64c0-20.76,20.8-39.04,37.72-39.04l588.89.06,112.03.05,557.44-.09c7.02,0,12.67-.22,18.59,2.25,11.35,4.72,19.39,11.86,25.1,22.94,2.65,5.14-1.89,2,3.24,10.7l-.07,60.52.08,95.79-.07,33.45.08,46.71.06,30.11-.15,59.83.25,85.13v17.01c.02,18,2.84,22.12-4.04,36.9-2.59,5.56-7.15,13.58-12.44,16.45-.58.32-1.29,2.4-1.64,2.22-.45-.23-2.01-.85-2.32-.58-6.45,5.72-19.49,7.17-27.96,7.48l-13.41.5-10.86.35ZM1171.12,561.68h63.5s18.06-.03,18.06-.03c13.69-.03,27.11.39,40.79-.08l5.27-.18c7.98-.27,12.29-8.23,9.96-16.05l-.14-430.06c0-4.35-.05-7.42-2.71-10.1-2.23-2.25-5.25-3.25-9.57-3.25H42.84c-4.75,0-9.09,5.95-9.09,10.49l.04,356.01.22,16.86c-.45,22.4,1.15,37,.12,60.81-.21,4.79.73,15.78,8.79,15.78l1105.37.03c7.93-1.41,14.69-.23,22.83-.23Z"/>
    <path class="cls-1" d="M1286.31,549.26c-5.44,1.5-11.13-.08-17.04-.08H71.97c-6.56,0-11.44,1.86-17.64-1.19-2.34-1.7-7.53-6.09-7.54-10.41l-.1-124.45h1246.57c1.31,0,3.12.62,3.57,1.19.56.71-.22,2.65-.22,4.01v114.61c0,7.05-2.44,14.15-10.29,16.32ZM248.75,451.86c-2.94,9.82,3.52,29.58-4.78,28.29-4.83-.75-.82-19.33-3.36-28.11-8.29.38-15.86,4.73-21.12,10.93-13.18,15.54-9.95,39.81,7.24,50.64,12.53,7.89,26.65,7.61,38.05-1.42,8.33-6.6,13.47-16.3,13.66-26.74.27-15.45-12.68-32.94-29.7-33.59ZM370.66,452.04c-.24,3.53-.5,5.93-.45,8.1l.34,16.9c.03,1.39-3.09,3.39-4.39,3.11-7.36-1.58.34-18.63-4.51-28.35-16.06,2.41-27.68,15.31-28.7,31.52-.5,8.03,3.03,17.07,7.83,23.29,3.91,5.05,9.31,8,14.87,10.44,9.28,4.09,19.17,2.25,28.05-2.97,12.7-7.46,19.6-23.21,15.62-37.86-2.83-10.42-16.19-24.81-28.66-24.19ZM521.82,483.39c-.71-16.41-12.04-29.52-29.08-31.5l-.36,25.05c-.02,1.59-3.01,3.45-4.35,3.18-1.25-.26-2.41-2.43-2.43-3.96l-.21-24.07c-12.09.63-20.97,7.28-26.43,17.24-7.96,14.53-3.44,36.06,13.28,45.16,8.57,4.67,17.65,6.3,26.77,2.87,14.15-5.32,23.51-17.7,22.8-33.97ZM614.61,452.13c-1.45,13.81.79,13.87-.31,25.36-.15,1.55-3.7,3.65-4.86,2.93-1.02-.63-2.68-3.03-2.7-4.28l-.31-24.13c-19.43,1.85-31.23,19.38-28.78,38,1.76,13.46,11.45,23.47,24.34,27.81,17.61,5.93,37.09-6.86,42.02-27.38,3.93-16.37-12.48-38.49-29.4-38.31ZM736.84,451.94c-.41,4.12-1.03,8.24-.9,11.95l.45,12.97c.05,1.35-2.9,3.62-4.23,3.37-7.1-1.32-.24-17.87-3.15-28.54-15.47,1.62-27.35,15.13-29.89,28.45-3.23,16.98,9.22,33.85,25.99,38.04,19.64,4.9,38.01-9.56,40.91-28.82,2.71-18-11.03-35.7-29.17-37.42ZM858.68,451.99l-.16,24.17c-.01,2-2.5,4.27-4.36,4-1.34-.2-3.45-2.76-3.45-4.12l-.08-24.04c-19.73,2.35-31.68,20.65-28.89,39.07,2.52,16.66,19.65,29.49,35.12,28.07,19.33-1.77,34.82-20.21,31.18-39.52-2.81-14.88-14.47-26.47-29.36-27.62ZM1007.45,471.31c-5.21-10.4-14.05-18.78-26.66-19.24l-.16,24.03c-.02,2.88-1.61,4.45-4.68,3.95-4.77-.77-.84-21.81-2.65-28.38-14.47,1.95-24.44,11.25-28.6,24.45-4.64,14.73,2.96,32.14,16.46,38.91,10.29,5.16,20.5,5.72,29.86.68,16.18-8.71,24.82-27.68,16.44-44.4ZM1141.36,484.01c0-11.28-9.15-20.43-20.43-20.43s-20.43,9.15-20.43,20.43,9.15,20.43,20.43,20.43,20.43-9.15,20.43-20.43ZM1226.61,484.05c0-11.35-9.2-20.55-20.55-20.55s-20.55,9.2-20.55,20.55,9.2,20.55,20.55,20.55,20.55-9.2,20.55-20.55Z"/>
    <path class="cls-1" d="M1038.81,395.98l-27.24-29.37-27.27,29.23-16.19-.23,34.76-37.86-47.99-52.05-48.17,52.17,35.28,37.69-16.39.44-27.18-29.47-27.18,29.06c-5.04.44-10.73.39-16.21.07l8.49-9.78,26.41-28.31-48.3-51.98-48.13,52.33,34.86,37.53-15.78.57-27.45-29.54-27.52,29.49-15.9-.36,34.92-37.85-48.48-51.93-48.03,51.98,34.61,37.44c-5.87.85-11.69.98-16.19.16l-26.85-28.88-26.78,28.85c-4.87.76-9.73.84-16.03.13l34.34-37.57-48.22-51.93-48.29,51.76,34.64,37.68c-5.93.55-11.03.57-16.33.32l-26.56-29.23-27.29,29.31-16.07-.11,34.89-37.85-48.25-52.14-47.95,52.17,34.61,37.49c-5.67.59-10.3.59-15.78.53l-27.47-29.11-26.46,28.78c-4.96.51-10,.55-16.05-.35l34.04-37.37-48-52.05-47.92,52.02,34.56,37.77-15.91.5-13.94-14.92-13.36-14.64-27.32,29.49-16.05-.45,34.67-37.62-47.83-52.34-48.24,52.07,34.67,37.85-15.84.64-27.31-29.66-27.32,29.49-16.05-.47,34.69-37.69-47.99-52.09-48.24,51.63,14.84,16.38,20.28,21.95-16.48.3-26.91-29.42-27.25,29.2-16.25-.17,34.64-37.76-19.15-21.07-21.75-23.37-.02-32.87,40.97-44.28-40.91-44.08c-.47-11.56-.44-22.79.02-34.24l32.81-34.86,16.45-.14-48.14,51.93,21.16,23.43,27.22,29.01,48.01-52.24-47.49-51.65c6.08-.72,10.81-.61,16.27-.07l39.56,42.93,40.36-43.37h32.9s40.17,43.21,40.17,43.21l40.37-43.16h33.17s39.89,43.21,39.89,43.21l40.48-43.32,33.03.22,39.43,43.22,40.01-43.26,16.13.15-47.8,51.85,48.36,51.95,48.34-52.04-47.81-51.75,15.88-.37,40.33,43.6,40.24-43.52h32.54s40.54,43.58,40.54,43.58l40.22-43.41,15.97.06-27.58,30.28-20.1,21.63,48.05,52.04,48.35-51.61c-.61-1.87-1.99-3.43-3.63-4.63l-44-47.75,15.9-.14,40.11,43.3,40.5-43.47,32.72.22,18.11,19.64,21.77,23.78,39.98-43.45,32.07-.18c3.04,1.73,5.28,4.61,7.77,7.29l33.52,36.14,40.24-43.33,33.07.09,40.05,43.09,40.18-43.02,33.25-.14,32.53,35.22.19,33.18-27.53,30.09-13.64,14.66,41.11,44.65-.06,32.81-40.9,44.01,34.56,37.88-15.63.6-15.96-17.1-9.78-10.92c-.38-.42-2.08-.94-2.42-.57l-1.14,1.23-25.13,27.09-13.53.19c-.43,0-2.31-.26-2.11-.6l1.27-2.12,32.77-35.38-47.78-52.14-46.73,49.77c-.85.9-.77,3.36-.05,4.06l16.85,18.21,16.54,17.97-16.44.12-27.04-29.46-27.06,29.29-13.33.39-2.56-.63c-.62-.15,1.35-2.06,1.68-2.31l32.71-35.37-48.08-52.2-45.78,49.2c-1.51,1.62-2.08,3.45-.68,4.97l21.18,22.95,10.51,11.39c.29.32.77,1.01,1,1.31s-1.43.52-1.96.53l-13.69.08ZM266.99,175.06l-18.57-19.92-27.74-30.31c-1.28-1.4-3.87-.14-5.09,1.19l-45.06,48.98,21.6,23.52,26.67,28.84,15.37-16.9,32.83-35.39ZM380.4,175.04l-45.52-49.32c-1.18-1.67-3.6-1.86-5.08-.48l-45.93,49.71,48.17,52.12,48.36-52.03ZM493.52,175l-45.54-49.33c-1.12-.7-2.76-1.66-3.63-1.43-.7.19-1.64,1.33-2.39,2.24l-44.78,48.51,48.03,52.25,48.31-52.25ZM671.77,227.19l48.33-52.06-48.46-52.23-28.39,30.72-19.81,21.11,48.33,52.46ZM946.51,175.16l-48.16-52.12-48.29,52.05,48.28,51.82,48.17-51.75ZM1011.45,227.3l48.31-52.25-47.92-51.64c-3.26,2.11-5.05,4.14-7.02,6.78l-41.67,44.78,48.3,52.32ZM1124.79,227.28l48.14-52.38-48.07-52.05-35.67,38.7-12.65,13.2,48.26,52.52ZM1286.24,175.15l-45.67-50.15c-1.27-.68-2.97-.88-4.21-.39l-46.32,50.31,48.15,52.25,48.06-52.01ZM188.17,260.14l21.98-24.27-48.11-51.94-48.26,52.05,48.22,52.14,26.16-27.97ZM275.54,288.11l48.18-52.16-48.28-52.06-48.37,52.14,48.46,52.07ZM388.85,287.97l47.97-52.13-47.91-51.94-48.39,52.15,48.33,51.91ZM615.09,287.77l48.12-51.62-48.12-52.46-48.31,52.27,48.31,51.81ZM1067.93,288.02l48.26-51.9-48.17-52.26-48.02,52.16,47.94,52ZM1181.52,288.16l48.19-52.18-48.14-52.27-48.34,52.19,48.29,52.26ZM549.85,235.85l-47.86-51.93-48.46,52.1,47.97,51.67,48.34-51.84ZM776.71,236.11l-48.08-52.18-48.56,52.16,48.26,51.84,48.38-51.82ZM841.69,287.97l48.15-52-48.22-51.94-48.18,52.21,48.25,51.73ZM1003,236.19l-48.1-52.25-48.1,52.08,47.64,51.8,48.56-51.63ZM105.44,348.84l48.13-51.95-48.15-52.22-5.24,5.89-42.91,46.55,48.17,51.74ZM201.12,329.77l17.6,19.08,48.17-51.96-48.05-52.3-48.05,51.95,13.85,15.48,16.48,17.75ZM380.34,296.83l-35.47-38.22-12.96-13.89-47.87,52.01,48.14,52.28,48.16-52.18ZM558.53,349.01l48.04-52.06-48.27-52.25-47.63,51.78c3.99,5.15,8.17,9.8,12.76,14.74l35.1,37.79ZM671.75,349.03l48.08-52.05-48.06-52.19-48.25,52.19,48.23,52.06ZM833.35,296.72l-29.35-31.21-18.96-20.84-11.86,12.98-36.28,39.15,48.19,52.09,48.25-52.17ZM915.69,329.89l30.51-33.17-47.97-51.8-48.03,51.91,48.31,52.08,17.19-19.01ZM1011.42,348.93l48.3-52.13-48.3-52.16-48.2,52.18,48.19,52.1ZM1124.76,348.81l48.27-51.95-48.23-52.3-48.22,52.38,48.18,51.87ZM1255.7,329.87l30.09-32.8-15.07-17.16-32.55-35.21-48.23,52.11,48.16,52.08,17.6-19.03ZM483.11,308.11c3.85-3.73,6.75-7,10.01-11.42l-47.88-51.85-47.32,51.39c2.96,4.82,6.61,8.76,10.55,12.76l36.88,40.11,37.77-40.99Z"/>
  </g>
</svg>