<?xml version="1.0" encoding="UTF-8"?>
<svg id="Lager_1" data-name="Lager 1" xmlns="http://www.w3.org/2000/svg" viewBox="0 0 611.01 616.59">
  <defs>
    <style>
      .cls-1 {
        fill: #fff;
      }
    </style>
  </defs>
  <path class="cls-1" d="M400.3,30.85c-65.7-25.89-123.78-25.43-189.56-.46-.95-3.85-.89-7.23-.24-11.61,23.97-9.11,48.4-16.63,74.43-17.77l22.08-.96c5.87-.26,12.04.57,18.04.95,26.09,1.66,50.32,8.62,75.03,17.85l.21,12.01Z"/>
  <path class="cls-1" d="M205.78,30.29l-37.26.13c-.84-1.54-.84-5.43.06-7.26,3.12-6.34,19.82-5.31,28.49-5.73l8.69-.41.02,13.27Z"/>
  <path class="cls-1" d="M435.67,19c5.05.6,8.95,6.68,6.5,11.18l-37.31.32-.34-13.2c9.52-.15,21.53.56,31.15,1.7Z"/>
  <g>
    <path class="cls-1" d="M0,593.73V46.73c2.68-2.97,6.64-12.01,14.29-12.01h578.43c6.02,0,10.68,1.8,13.69,6.72l4.6,7.5-.02,541.71c-6.31,16.15-14.1,15.04-29.24,14.58-4.32-.13-.93,7.77-5.63,11.36l-36.25-.02c-2.31-2.88-2.81-6.75-3.42-10.73-2.59-1.55-6.95-.31-10.78-.31H73.42c-.18,4.25-.92,7.4-2.78,11.03l-37.2.02c-1.74-3.73-2.49-6.69-2.98-11.08l-17.44-.78c-6.88-.31-9.93-8.22-13.01-11ZM34.93,68.61v501.94s540.5,0,540.5,0V68.62s-540.5,0-540.5,0Z"/>
    <g>
      <g>
        <path class="cls-1" d="M550.02,444.38c0,59.75-48.44,108.2-108.2,108.2s-108.2-48.44-108.2-108.2,48.44-108.2,108.2-108.2,108.2,48.44,108.2,108.2ZM528.28,444.25c0-47.74-38.7-86.44-86.44-86.44s-86.44,38.7-86.44,86.44,38.7,86.44,86.44,86.44,86.44-38.7,86.44-86.44Z"/>
        <circle class="cls-1" cx="441.6" cy="441.72" r="26.52"/>
      </g>
      <g>
        <path class="cls-1" d="M272.34,203.54c0,57.17-46.34,103.51-103.51,103.51s-103.51-46.34-103.51-103.51,46.34-103.51,103.51-103.51,103.51,46.34,103.51,103.51ZM250.49,203.52c0-45.12-36.58-81.7-81.7-81.7s-81.7,36.58-81.7,81.7,36.58,81.7,81.7,81.7,81.7-36.58,81.7-81.7Z"/>
        <circle class="cls-1" cx="168.66" cy="199.74" r="26.17"/>
      </g>
      <g>
        <path class="cls-1" d="M544.81,203.54c0,57.15-46.33,103.48-103.48,103.48s-103.48-46.33-103.48-103.48,46.33-103.48,103.48-103.48,103.48,46.33,103.48,103.48ZM522.94,203.53c0-45.11-36.57-81.68-81.68-81.68s-81.68,36.57-81.68,81.68,36.57,81.68,81.68,81.68,81.68-36.57,81.68-81.68Z"/>
        <circle class="cls-1" cx="441.36" cy="199.74" r="26.17"/>
      </g>
      <g>
        <path class="cls-1" d="M276.58,444.39c0,59.77-48.45,108.22-108.22,108.22s-108.22-48.45-108.22-108.22,48.45-108.22,108.22-108.22,108.22,48.45,108.22,108.22ZM254.66,444.22c0-47.73-38.69-86.42-86.42-86.42s-86.42,38.69-86.42,86.42,38.69,86.42,86.42,86.42,86.42-38.69,86.42-86.42Z"/>
        <circle class="cls-1" cx="168.44" cy="441.73" r="26.47"/>
      </g>
    </g>
  </g>
</svg>