<?xml version="1.0" encoding="UTF-8"?>
<svg id="Lager_1" xmlns="http://www.w3.org/2000/svg" version="1.1" viewBox="0 0 465 451">
  <!-- Generator: Adobe Illustrator 30.2.1, SVG Export Plug-In . SVG Version: 2.1.1 Build 1)  -->
  <path d="M403,0c-.5-.1,1.1,1,1.7,1h58.9c0,.1.5,21.4.5,21.4,0,.5,1,2.1.9,1.7v407l-1.4,16.7c-1,1.3-4.6,2.3-6.5,2.3h-59c0-.1.3-20.5.3-20.5l47.4.2V61.4c0,0-.8-40.6-.8-40.6l-46.3-.9L398,0h5Z" fill="#fff"/>
  <path d="M0,450V3C3.3,1.9,7.1,1,11,1h55.6c0,6.8-.2,12.4-.8,19H19.4c0,0-.6,26.3-.6,26.3v361.5s.2,22.3.2,22.3l46.7-.6.8,15c0,1.1-.8,3.6-1.4,4.3s-2.7,1.2-4.1,1.2H0Z" fill="#fff"/>
  <g>
    <path d="M332.1,377.8c-59.6,38.5-135.6,38.3-194.9,0-8.2-5.3-15.8,4-31.9,1-14-2.6-23.7-14.6-23-28.7s4.6-20.3.9-26.1c-37.8-59.3-37.7-135.5.4-194.6,5.3-8.1-3.2-14.2-.7-30.7,2.1-14,13.9-24.2,28.3-24,11.9.2,20.2,5,24.8,2,60.8-40,140-39.4,200.2,1.5l18-3.1c13.3-2.3,25.6,5.1,30.5,17.4s2.6,13.5,1.5,20.5l-1.9,12.7c39.5,64,41.4,138.7-.3,202.6l3,17.6c3.2,18.6-12.1,34.6-30.8,33.3-12.9-.9-16.9-5.9-23.9-1.4ZM380,226.8c0-80.3-65.1-145.4-145.4-145.4S89.2,146.5,89.2,226.8s65.1,145.4,145.4,145.4,145.4-65.1,145.4-145.4Z" fill="#fff"/>
    <path d="M289.2,227.1c0,30.2-24.5,54.7-54.7,54.7s-54.7-24.5-54.7-54.7,24.5-54.7,54.7-54.7,54.7,24.5,54.7,54.7ZM238.2,198.5c-.5-3.5-3-5.2-7.5-5.4-16.4-.6-29.9,13.3-29.9,30,0,3.1,2.8,6.1,4.9,6.6s7-.3,7.4-2.5c4-27.2,27-15.9,25.1-28.8Z" fill="#fff"/>
  </g>
</svg>