<?xml version="1.0" encoding="UTF-8"?>
<svg id="Lager_1" xmlns="http://www.w3.org/2000/svg" version="1.1" viewBox="0 0 465 451">
  <!-- Generator: Adobe Illustrator 30.2.1, SVG Export Plug-In . SVG Version: 2.1.1 Build 1)  -->
  <path d="M5,451H0V4c.5-.7,2.9-3,4.4-3h62.4s-.9,15-.9,15c-.2,2.8-3,4.1-5.7,4.1l-41.2.2-.5,86.7v44.5s.3,226.3.3,226.3l.2,52.1,46.8-.3.5,19.6c-21,2.2-40.7-.7-61.1,1.8Z" fill="#fff"/>
  <g>
    <path d="M402,0c-.5-.1,1.1,1,2.1,1,14.2,0,36.1,0,52.6,0,3,0,5.3.7,7.3,2.4v42.8c0,.7,1.2,2.3,1,1.9v379c0,7.1-1.8,15-1,23h-62.1c-2.9,0-4.7-2.3-5.2-4.9l1.1-15.6,47.9.3.2-62V63.2c.1,0-.8-42.6-.8-42.6l-46.6-.8L398,0h4Z" fill="#fff"/>
    <g>
      <path d="M354.9,338.6c-.7,6.8-4.5,10.4-11,10.4H119.2c-6.1,0-10.7-5.1-9-11s3.5-4.6,6.1-6h204.6s26.4-.4,26.4-.4c3,1.4,5.5,3.8,7.6,6.9Z" fill="#fff"/>
      <circle cx="196.7" cy="290.8" r="16.5" fill="#fff"/>
      <path d="M375.5,386.8l-231.3.3h-54.3c-11.3,0-23.5-9.8-24.2-21.4-1-18.2-.3-35.5-.3-53.7v-56.9c.1-14.2,15-23.5,28.8-23.1v-12c-15.5,1-29.3-10-29.2-26l.9-109.2c0-8.8,11-19.5,20.1-19.5l288.7-.2c14.7,0,24.1,14.4,24.1,26l.2,71v33c-.1,15.1-13,25.8-28.2,24.9l-.4,11.8c17.7-.2,28.9,13.1,28.8,30.4l-.5,100.8c0,12.1-10.6,23.9-23.3,23.9ZM374.5,89H89.5v107h284.9v-107ZM345,219.8H119v12.5h226v-12.5ZM374.2,256H89.8v106.8h284.5v-106.8Z" fill="#fff"/>
      <path d="M147,294.5c-1.3,6-6.2,10.4-11.2,12.2s-10.8,0-14.8-3.1-7-8.2-6.3-14.1,7.9-15.5,16.3-15.5c10.1,0,18.2,10.4,16,20.5Z" fill="#fff"/>
    </g>
    <g>
      <path d="M346.3,181.5h-74.7c0,0-152.4-.2-152.4-.2-3.3,0-5.8-1-7.7-3.1s-2.8-5.3-1.5-8.3,5.4-5.9,9.3-5.9h224.6c5.7,0,10.4,3.8,10.7,9.2.2,3.7-3.8,8.3-8.3,8.3Z" fill="#fff"/>
      <circle cx="196.6" cy="123.3" r="16.4" fill="#fff"/>
      <circle cx="131" cy="123.4" r="16.4" fill="#fff"/>
    </g>
  </g>
</svg>