<?xml version="1.0" encoding="UTF-8"?>
<svg id="Lager_1" data-name="Lager 1" xmlns="http://www.w3.org/2000/svg" viewBox="0 0 666.29 622.1">
  <defs>
    <style>
      .cls-1 {
        fill: #fff;
      }
    </style>
  </defs>
  <g>
    <path class="cls-1" d="M364.36,121.98l-251.12.04c-6.06,0-10.3-5.7-10.58-10.76-.24-4.22,3.82-11.27,9.73-11.27h251.66c5.8,0,9.21,6.33,9.33,10.56s-2.52,11.43-9.03,11.43Z"/>
    <circle class="cls-1" cx="57.15" cy="167.38" r="11.19"/>
    <path class="cls-1" d="M597.82,56.69c-1.25-4.48,1.66-8.71,4.7-10.98,3.55-2.65,8.54-3.19,12.32-.44,4.26,3.11,6.49,7.79,4.86,12.64-1.49,4.43-5.57,8.25-10.93,8-4.44-.21-9.35-3.53-10.94-9.22Z"/>
    <circle class="cls-1" cx="57.18" cy="54.73" r="11.18"/>
    <path class="cls-1" d="M606.43,156.54c5.97-1.8,12.01,2.79,13.47,8.12,1.63,5.96-2.17,11.99-8.73,13.63-5.31,1.32-10.63-1.89-12.89-7.92-1.92-5.12,1.18-11.72,8.16-13.83Z"/>
  </g>
  <g>
    <path class="cls-1" d="M519.51,600.59l-.78-17.45H147.58s-.71,17.81-.71,17.81c-.44,10.91-10.56,20.42-21.75,20.74-16.51.47-32.36.63-48.81-.07-13.13-.55-22.26-13.19-21.94-25.39l.33-12.67-21.63-.72c-17.72-.59-32.71-18.42-32.76-36.83L0,423.06c-.03-11.66,3.83-21.23,12.21-29.83-5.31-6.97-11.9-14.8-11.9-24.26l-.03-132.75c0-9.18,6.34-16.42,11.19-23.47-3.75-7.37-11.1-14.31-11.12-23.32L.08,42.15c-.01-7.76.86-13.91,4.41-21.24C9.66,10.22,21.82,0,35.31,0l596.77.19c18.15,0,33.63,18.89,33.69,35.84l.53,144.91c.04,12.03-3.57,22.65-11.92,31.25,5.95,7.53,11.73,16.98,11.73,26.9v127.87c0,10.06-5.48,18.87-12.01,26.05,8.55,8.95,12.17,18.96,12.15,31.11l-.21,122.68c-.03,17.4-19.16,35.74-32.76,36.06l-21.76.51c-.56,6.83.37,12.96-.68,19.73-1.43,9.2-11.1,18.62-20.55,18.63l-48.02.05c-11.54.01-22.22-9.13-22.76-21.18ZM630.37,201.16c8.38-1.83,13.1-6.93,14.74-14.45l-.06-149.65c0-8.12-6.67-14.05-14.04-16.14H35.43c-7.41,1.92-12.23,7-14.29,14.21v150.76c1.05,8.03,6.4,13.5,14.4,15.28h594.83ZM626.43,381.94c10.15-.03,16.74-6.1,18.69-15.04l-.14-127.77c0-8.82-7.79-14.73-16.06-16.01H36.65c-7.4,2.14-15.34,6.74-15.33,15.04l.2,129.75c.02,9.76,11.61,14.05,19.9,14.05l585.01-.02ZM630.38,562.18c10.12-2.2,14.74-9.94,14.74-19.25l-.06-122.63c-1-8.25-6.86-16.38-16.08-16.38H37.44c-8.68,0-14.77,7.64-16.3,15.15l.16,127.94c0,6.34,7.23,15.12,14.13,15.12l594.95.05ZM126.08,600.64l-.3-16.44-49.94.05.48,16.59,49.76-.2ZM590.2,600.81l.03-16.54h-49.95s.23,16.55.23,16.55h49.69Z"/>
    <g>
      <path class="cls-1" d="M363.94,313.73l-251.15.08c-5.99-1.49-9.69-5.15-10.01-10.76-.27-4.65,3.18-11.17,9.56-11.17l252.69.02c5.57,0,8.36,6.58,8.62,10.8.23,3.73-3.58,11.02-9.71,11.03Z"/>
      <circle class="cls-1" cx="608.92" cy="257.52" r="11.33"/>
      <circle class="cls-1" cx="57.14" cy="257.47" r="11.24"/>
      <path class="cls-1" d="M597.87,349.53c-1.71-7.49,6.42-14.36,13.31-12.72,5.95,1.42,9.36,6.54,9.17,11.68-.2,5.43-4.43,9.64-9.87,10.4s-11.08-2.69-12.61-9.37Z"/>
      <circle class="cls-1" cx="57.18" cy="347.79" r="11.16"/>
    </g>
    <g>
      <path class="cls-1" d="M364.47,493.99l-249.08.09c-7.1,0-12.26-4.01-12.5-10.63-.22-5.97,4.39-11.46,11.46-11.46l249.68.06c5.8,0,9.18,6.24,9.34,10.53.14,4-2.5,11.41-8.89,11.42Z"/>
      <path class="cls-1" d="M606.65,517.32c5.71-1.45,11.89,2.92,13.31,8.25,1.63,6.11-2.12,12.05-8.7,13.82-5.1,1.37-11.79-2.55-13.37-8.52-1.43-5.43,2.39-11.94,8.76-13.55Z"/>
      <circle class="cls-1" cx="57.25" cy="528.33" r="11.22"/>
      <circle class="cls-1" cx="608.97" cy="437.92" r="11.23"/>
      <circle class="cls-1" cx="57.1" cy="437.91" r="11.21"/>
    </g>
  </g>
</svg>