<?xml version="1.0" encoding="UTF-8"?>
<svg id="Lager_1" data-name="Lager 1" xmlns="http://www.w3.org/2000/svg" viewBox="0 0 495.13 624.72">
  <defs>
    <style>
      .cls-1 {
        fill: #fff;
      }
    </style>
  </defs>
  <path class="cls-1" d="M0,310.81v-49c3.89-10.83,13.69-17.4,25.32-14.31l.09,78.32c-12.11,2.87-22.01-4.15-25.41-15.01Z"/>
  <path class="cls-1" d="M494.74,262.19c.28,17.24.83,33.13-.28,49.62-.75,11.17-14.34,16.55-24.14,13.88l.02-78.66c4.77-.07,8.26-.26,12.08.62,5.84,1.34,12.22,7.58,12.33,14.54Z"/>
  <g>
    <path class="cls-1" d="M424.27,624.71H79.22c-10.28.01-19.45-2.51-26.76-9.49s-13.8-16.62-13.79-27.62l.13-549.57C38.81,14.57,60.87-.03,82.03,0l337.91.51c20.16.03,34.61,17.37,37.3,36.59v551.5c-2.66,18.13-14.42,32.56-32.97,36.11ZM404.38,218.94c12.95,0,23.12-8.67,23.13-21.47l.03-142.62c0-11.8-7.97-23.59-20.92-23.59H90.61c-13.25,0-22.22,10.71-22.21,23.19l.12,144c0,9.55,9.31,20.41,19.55,20.41l316.3.09ZM267.49,270.49c0-10.78-8.74-19.52-19.52-19.52s-19.52,8.74-19.52,19.52,8.74,19.52,19.52,19.52,19.52-8.74,19.52-19.52ZM408.38,593.96c10.84-1.92,18.98-10.34,18.99-21.28l.1-161.79c-1.71-10.1-8.84-19.62-19.83-19.62l-320.34-.07c-10.42,1.89-17.32,9.56-18.94,19.89l.11,160.28c0,10.47,8.22,22.44,19.68,22.45l320.23.14Z"/>
    <g>
      <path class="cls-1" d="M373.95,92.54c10.14,11.16,15.08,25.96,12.26,40.53-3.04,15.69-13.6,28.5-27.88,35.24-17.61,8.31-37.06,4.21-51.22-8.31-22.07-19.53-21.64-52.44.53-71.69,17.06-14.81,41.94-16.12,59.54-1.96l-26.98,28.75c-1.65,1.76-1.6,5.27-.06,6.99,1.26,1.4,4.45,1.5,6.46.4l27.35-29.96Z"/>
      <path class="cls-1" d="M161.65,118.25l-.03-41.56c30.55,3.14,49.95,33.06,41.48,61.48-8.35,28.03-40.8,43.22-67.45,29.07-16.59-8.81-27.29-25.45-26.38-44.41,1.14-23.94,18.91-43.03,42.74-46.07l.35,41.07c.02,2.83,1.66,5.18,4.12,5.48s5.18-1.74,5.18-5.07Z"/>
    </g>
    <g>
      <path class="cls-1" d="M300.13,492.24c0,28.76-23.31,52.07-52.07,52.07s-52.07-23.31-52.07-52.07,23.31-52.07,52.07-52.07,52.07,23.31,52.07,52.07ZM292.05,492.24c0-24.31-19.7-44.01-44.01-44.01s-44.01,19.7-44.01,44.01,19.7,44.01,44.01,44.01,44.01-19.7,44.01-44.01Z"/>
      <circle class="cls-1" cx="248.04" cy="492.19" r="34.52"/>
    </g>
  </g>
</svg>