<?xml version="1.0" encoding="UTF-8"?>
<svg id="Lager_1" xmlns="http://www.w3.org/2000/svg" version="1.1" viewBox="0 0 465 450">
  <!-- Generator: Adobe Illustrator 30.2.1, SVG Export Plug-In . SVG Version: 2.1.1 Build 1)  -->
  <path d="M465,5.2v8.8c.2-.5-1,1.3-1,1.9v54.3c0,.6,1.2,2.4,1,1.9v378h-66.7c-1.1-6.4-1.1-12.9,0-20.2h47.4c0-.1.1-191.8.1-191.8V51.2s-.8-30.8-.8-30.8l-46.5-.4-.6-18.9h60.1c3.4,0,5.5,1.4,6.9,4.2Z" fill="#fff"/>
  <path d="M66,450H2c-.2-.3-1-2.3-1-3.3V2.2s21-.3,21-.3l5.2-.9,39.9.2-2.2,18.7-45.4.4-.6,16.8v113c0,0,.2,279.9.2,279.9h47.1c.4,7.2.7,13.6,0,20Z" fill="#fff"/>
  <g>
    <path d="M316.4,120.9c0,18.8-15.3,34.1-34.1,34.1s-34.1-15.3-34.1-34.1,15.3-34.1,34.1-34.1,34.1,15.3,34.1,34.1ZM287,115.7c0,1.3-3.2,4.1-4.4,3.7s-3.9-2.6-4-4l-1-17c-9.4.8-16,8.1-18.1,17.2-2.7,11.6,3.6,22.8,14.2,27.4s22.2.4,28.3-8.6c6.5-9.5,4.8-21.8-3-30.3s-7.1-6.1-11.8-5.4v17Z" fill="#fff"/>
    <path d="M219.7,120.8c0,18.8-15.3,34.1-34.1,34.1s-34.1-15.3-34.1-34.1,15.3-34.1,34.1-34.1,34.1,15.3,34.1,34.1ZM184.5,119.7c-1.2-.4-3.6-2.4-3.6-4l-.3-16.5c-11.8-1.5-20.1,13.7-18.2,25.8s9,17.7,19.1,19.5c11.2,2,21.9-4.4,25.8-13.9s1.8-21.9-7.1-28.8-6.8-3.2-10.3-3.1c-.6,3.3,1.8,23.5-5.4,21Z" fill="#fff"/>
    <g>
      <path d="M335.4,412.6h-201.1c-15.1,0-21.5-16.1-21.5-28.5v-141.4c-5.4-.4-12.4-2-13-7.3-1.5-13.3-1.3-26.9-.4-40.3s7.3-8.5,13.3-8.7l.2-112.4c0-13.3,8.5-26.9,23.3-26.8l198.8.2c8.5,0,19.7,12.4,19.7,20.5l.9,118c4.7.7,11.4,2.5,12.1,7.3,2,14.4,2.1,29.2,0,43.6-.7,5-8.1,5.5-12.3,6.1l-.2,44.1-.2,102.2c0,9.1-8.3,23.3-19.5,23.3ZM333,68.3h-198.5s0,105.2,0,105.2h198.5s0-105.2,0-105.2ZM333.2,194.8h-198.7v196.7h198.7v-196.7Z" fill="#fff"/>
      <path d="M273.2,323.5c0,21.6-17.5,39.1-39.1,39.1s-39.1-17.5-39.1-39.1,17.5-39.1,39.1-39.1,39.1,17.5,39.1,39.1ZM259.7,323.5c0-14.2-11.5-25.6-25.6-25.6s-25.6,11.5-25.6,25.6,11.5,25.6,25.6,25.6,25.6-11.5,25.6-25.6Z" fill="#fff"/>
      <circle cx="234" cy="236.1" r="11.7" fill="#fff"/>
    </g>
  </g>
</svg>