<?xml version="1.0" encoding="UTF-8"?>
<svg id="Lager_1" xmlns="http://www.w3.org/2000/svg" version="1.1" viewBox="0 0 75 213">
  <!-- Generator: Adobe Illustrator 30.2.1, SVG Export Plug-In . SVG Version: 2.1.1 Build 1)  -->
  <path d="M47.63,134.63l-.19,52.32c5.1,3.92,8.44,9.77,4.95,15.19-2.97,4.6-8.48,8.13-14.25,8.09-7.1-.05-12.39-3.12-15.5-8.99s1.62-10.9,6.29-15.19v-51.11c-11.51-3.51-24.42-11.59-24.46-24.91l-.24-96.71c-.01-4.44,6.39-6.34,9.25-6.42s9.05,2.2,9.08,6.12l.58,96.73c.04,6.35,8.88,10.12,13.52,10.35,5.27.27,15.12-2.44,15.18-9.39l.83-97.36c.04-4.58,6.76-6.38,9.8-6.46s9.6,2.96,9.52,7.01c-.7,33.32,1.52,66.03-.99,98.33-.9,11.62-13.46,18.76-23.35,22.42Z" fill="#fff"/>
</svg>